<?xml version="1.0" encoding="UTF-8"?>
<svg xmlns="http://www.w3.org/2000/svg" viewBox="-125 -10 250 90" fill="currentColor">
<path d="M0 0 C1.7018042 0.30236572 1.7018042 0.30236572 3.43798828 0.61083984 C4.80119565 0.87160611 6.16430578 1.13288096 7.52734375 1.39453125 C9.21980421 1.70700435 10.91235601 2.01898291 12.60498047 2.33056641 C17.4030154 3.22358343 22.19124271 4.16096718 26.97729492 5.1159668 C28.98004627 5.51219635 30.98432236 5.9007906 32.98999023 6.28198242 C35.92155764 6.83970687 38.8475476 7.42111926 41.7734375 8.0078125 C42.66413437 8.17259598 43.55483124 8.33737946 44.47251892 8.50715637 C50.16309474 9.68364134 53.42264888 11.23948183 57.52734375 15.39453125 C61.39836566 21.58816631 61.32992886 28.25064184 60.52734375 35.39453125 C59.0065355 40.3391078 56.53825128 44.11531934 52.52734375 47.39453125 C49.60051144 48.42934638 46.61102609 48.97408614 43.5625 49.53515625 C42.69217636 49.70706482 41.82185272 49.87897339 40.92515564 50.05609131 C39.08830033 50.4160149 37.2499899 50.76858042 35.41040039 51.11425781 C32.60040718 51.64254529 29.79528419 52.19221631 26.99023438 52.74609375 C25.20206669 53.0937043 23.4136622 53.44009933 21.625 53.78515625 C20.78840347 53.94759827 19.95180695 54.11004028 19.08985901 54.27740479 C15.18410982 55.00770529 11.52185601 55.60256298 7.52734375 55.39453125 C7.52734375 56.05453125 7.52734375 56.71453125 7.52734375 57.39453125 C9.17734375 58.05453125 10.82734375 58.71453125 12.52734375 59.39453125 C12.19734375 60.71453125 11.86734375 62.03453125 11.52734375 63.39453125 C10.61210937 63.58789062 9.696875 63.78125 8.75390625 63.98046875 C7.56539062 64.24085937 6.376875 64.50125 5.15234375 64.76953125 C3.96898437 65.02476562 2.785625 65.28 1.56640625 65.54296875 C-1.55462592 66.1497709 -1.55462592 66.1497709 -3.47265625 68.39453125 C-7.82680985 69.98068721 -12.68933002 69.73329895 -17.27734375 69.91210938 C-20.81371596 70.09027261 -23.77331627 70.47658638 -27.22265625 71.41796875 C-32.66557368 72.87954202 -38.1243601 72.648204 -43.72265625 72.58203125 C-44.88909668 72.57341064 -46.05553711 72.56479004 -47.25732422 72.5559082 C-50.99620067 72.51875384 -54.73416911 72.45973185 -58.47265625 72.39453125 C-59.74206055 72.37519531 -61.01146484 72.35585937 -62.31933594 72.3359375 C-66.07951425 72.27079301 -69.83823745 72.18134515 -73.59765625 72.08203125 C-74.75168945 72.05971436 -75.90572266 72.03739746 -77.09472656 72.0144043 C-82.96331761 71.8234121 -87.79556839 71.18251154 -93.27880859 69.10083008 C-98.12099988 67.5419096 -103.31734694 67.55108984 -108.36328125 67.22265625 C-113.15427204 66.84288259 -116.51779843 66.40153058 -120.47265625 63.39453125 C-120.14265625 62.73453125 -119.81265625 62.07453125 -119.47265625 61.39453125 C-116.4899275 60.57326554 -113.48499166 59.98411429 -110.453125 59.37109375 C-107.39939543 58.63676144 -107.39939543 58.63676144 -105.62768555 56.40991211 C-98.90341041 50.12137793 -84.34451618 52.02758997 -75.65234375 51.91601562 C-69.61138984 51.76274885 -64.64217901 50.97354763 -58.92480469 49.06030273 C-54.61470455 47.89008737 -50.34549699 48.04024697 -45.91015625 48.14453125 C-45.02908203 48.1496875 -44.14800781 48.15484375 -43.24023438 48.16015625 C-38.26223163 48.21893709 -33.40338942 48.5476433 -28.47119141 49.22729492 C-25.34626829 49.48878678 -22.54290057 48.98245038 -19.47265625 48.39453125 C-19.88837891 47.53794922 -19.88837891 47.53794922 -20.3125 46.6640625 C-25.2492369 35.61350197 -25.70493915 24.77286104 -21.47265625 13.39453125 C-18.56842875 7.31753466 -15.04861102 2.84034091 -8.65454102 0.25512695 C-5.27998207 -0.65758081 -3.40802803 -0.61966817 0 0 Z M-15.09765625 9.14453125 C-20.35603892 15.92420702 -21.6486669 22.91495919 -21.47265625 31.39453125 C-20.21985888 39.95703891 -17.73603095 45.98282133 -11.72265625 52.26953125 C-8.22257421 54.55804643 -6.49341548 55.09586204 -2.42578125 54.81640625 C2.96680213 53.65160824 6.59584791 49.84231804 9.52734375 45.39453125 C14.36716393 34.9978805 14.36108873 25.1700367 10.52734375 14.39453125 C7.87554037 9.44449827 4.59032285 5.9260208 -0.47265625 3.39453125 C-7.35446182 2.8751497 -10.38652571 4.20906116 -15.09765625 9.14453125 Z " fill="currentColor"/>
</svg>
