<?xml version="1.0" encoding="UTF-8"?>
<svg xmlns="http://www.w3.org/2000/svg" viewBox="0 0 512 512" fill="currentColor">
<path d="M0 0 C3 1 3 1 4.8046875 4.11328125 C5.50043312 5.51022531 6.19006286 6.91022479 6.875 8.3125 C18.46231194 31.0225668 33.96260785 52.08083239 51 71 C51.50273437 71.55913086 52.00546875 72.11826172 52.5234375 72.69433594 C61.50561052 82.63969883 70.69599755 92.40503499 81 101 C81.80751709 101.67820801 81.80751709 101.67820801 82.63134766 102.37011719 C101.31348232 118.00934733 121.26818378 131.30885971 142.57421875 143.08984375 C145.4183358 144.67567412 148.22035924 146.30457858 151 148 C148.34254236 151.51884046 145.64926771 154.27738085 142.1875 157 C137.52922211 160.73159778 132.99436783 164.57276098 128.5 168.5 C124.21827422 172.23451811 119.91666175 175.92460715 115.5 179.5 C109.16800484 184.63126127 103.04710553 189.99856275 96.90087891 195.34912109 C88.95633072 202.24881733 80.93994734 209.06531273 72.8984375 215.8515625 C68.87096844 219.25340529 64.87082583 222.68608559 60.875 226.125 C56.7131582 229.70626602 52.51730831 233.2315813 48.25 236.6875 C43.86848205 240.24267904 39.68289319 243.96769537 35.51171875 247.765625 C32.11542494 250.78690037 28.5840702 253.62575933 25.05078125 256.484375 C21.47943501 259.42924949 17.98785513 262.45716976 14.5 265.5 C10.21793708 269.23415168 5.91668165 272.92459104 1.5 276.5 C-4.83199516 281.63126127 -10.95289447 286.99856275 -17.09912109 292.34912109 C-25.04000164 299.24563204 -33.04604424 306.06795354 -41.09277344 312.84057617 C-43.97836857 315.27293416 -46.84099654 317.72782928 -49.6796875 320.21484375 C-50.29650391 320.75238281 -50.91332031 321.28992188 -51.54882812 321.84375 C-52.72631982 322.87137911 -53.89982271 323.90360552 -55.06835938 324.94140625 C-64.09032658 332.79405785 -64.09032658 332.79405785 -69.03857422 333.14428711 C-75.4045629 332.63172878 -81.48264426 330.53125042 -87.5 328.5 C-88.55227783 328.14542725 -89.60455566 327.79085449 -90.6887207 327.42553711 C-108.75631901 321.13056626 -124.66703288 311.41581186 -138.5625 298.26171875 C-140.95593303 295.97498366 -140.95593303 295.97498366 -143.54296875 294.0234375 C-148.05053444 290.31132458 -151.42027283 285.58445732 -155 281 C-155.67417969 280.14148438 -156.34835938 279.28296875 -157.04296875 278.3984375 C-168.74277518 262.93881303 -185.4050569 236.0421408 -183 216 C-181.56150793 212.83011023 -179.34307445 210.545882 -177 208 C-176.11153729 206.96465296 -175.2277823 205.9252556 -174.34765625 204.8828125 C-171.78877738 201.85723878 -169.20355929 198.85560966 -166.60986328 195.85986328 C-164.00426662 192.84963651 -161.40659862 189.83263823 -158.8125 186.8125 C-158.05803589 185.93428589 -158.05803589 185.93428589 -157.28833008 185.03833008 C-154.3305482 181.58476024 -151.42612159 178.09499671 -148.5625 174.5625 C-143.40813208 168.21723119 -138.02637235 162.07490552 -132.65966797 155.90966797 C-126.5392154 148.86727609 -120.43969663 141.80997199 -114.5625 134.5625 C-109.40813208 128.21723119 -104.02637235 122.07490552 -98.65966797 115.90966797 C-92.5392154 108.86727609 -86.43969663 101.80997199 -80.5625 94.5625 C-75.40813208 88.21723119 -70.02637235 82.07490552 -64.65966797 75.90966797 C-58.5392154 68.86727609 -52.43969663 61.80997199 -46.5625 54.5625 C-41.40813208 48.21723119 -36.02637235 42.07490552 -30.65966797 35.90966797 C-23.68832452 27.88821336 -16.81065743 19.80703037 -10.11328125 11.5546875 C-6.8485042 7.60798844 -3.4389655 3.79504367 0 0 Z M84.5 140.25 C83.64019531 140.98089844 82.78039062 141.71179688 81.89453125 142.46484375 C80.93933594 143.30144531 79.98414063 144.13804687 79 145 C77.90112267 145.94042062 76.80080009 146.87915448 75.69921875 147.81640625 C73.31925222 149.84437998 70.94609368 151.87990552 68.578125 153.921875 C65.21361496 156.8208096 61.83009294 159.69651236 58.4375 162.5625 C57.63928833 163.23696167 57.63928833 163.23696167 56.82495117 163.92504883 C55.75303557 164.83052901 54.68101437 165.73588419 53.60888672 166.64111328 C51.98983505 168.00858545 50.37169156 169.37712372 48.75390625 170.74609375 C48.21644775 171.20089111 47.67898926 171.65568848 47.12524414 172.12426758 C46.04740889 173.03663075 44.96977002 173.94922597 43.89233398 174.86206055 C41.09022832 177.23529415 38.28336013 179.60254165 35.46875 181.9609375 C34.88802734 182.44884766 34.30730469 182.93675781 33.70898438 183.43945312 C32.60770851 184.36452485 31.50495401 185.28784055 30.40039062 186.20898438 C23.87802441 191.14386018 23.87802441 191.14386018 20.4375 198.0625 C21.13536986 201.70693151 21.94376723 202.90889337 25 205 C28.36010871 205.35706877 30.33184764 205.38899281 33.28125 203.671875 C34.0134375 203.03765625 34.745625 202.4034375 35.5 201.75 C36.35722656 201.02167969 37.21445312 200.29335938 38.09765625 199.54296875 C39.05542969 198.70378906 40.01320313 197.86460937 41 197 C42.12241449 196.03626365 43.24617322 195.07409124 44.37109375 194.11328125 C46.16865896 192.57690922 47.96474879 191.03901219 49.75585938 189.49511719 C53.2962304 186.44380067 56.87038617 183.44538618 60.5 180.5 C65.89287697 176.11927589 71.15934424 171.60114088 76.42578125 167.0703125 C79.95856337 164.0317137 83.50660836 161.01150765 87.0625 158 C87.58634277 157.55543457 88.11018555 157.11086914 88.64990234 156.65283203 C90.99462329 154.66895401 93.34422687 152.74254898 95.8046875 150.90234375 C98.31021167 149.06984959 98.31021167 149.06984959 99.0625 145.5625 C99.26914843 141.96983681 99.26914843 141.96983681 97.4375 139.0625 C95.16091813 136.74998231 95.16091813 136.74998231 92.12890625 136.66796875 C88.47119292 137.05611561 87.25197369 137.86624814 84.5 140.25 Z M2.5625 209.25 C1.70914063 209.971875 0.85578125 210.69375 -0.0234375 211.4375 C-1.00570312 212.283125 -1.98796875 213.12875 -3 214 C-4.24047848 215.0229094 -5.48276062 216.04363427 -6.7265625 217.0625 C-8.00590817 218.12415723 -9.28455826 219.18665325 -10.5625 220.25 C-11.1824585 220.75692383 -11.80241699 221.26384766 -12.44116211 221.78613281 C-16.49973503 225.16768307 -16.49973503 225.16768307 -18 230 C-16.40485216 234.28611247 -16.40485216 234.28611247 -13 237 C-9.37648747 237.39364064 -7.54971817 237.34587131 -4.4296875 235.3828125 C-3.58664063 234.63773438 -2.74359375 233.89265625 -1.875 233.125 C-0.9365625 232.30515625 0.001875 231.4853125 0.96875 230.640625 C1.45859375 230.20685547 1.9484375 229.77308594 2.453125 229.32617188 C4.04262436 227.96345714 5.67733242 226.6890467 7.34375 225.421875 C7.89144043 224.99632324 8.43913086 224.57077148 9.00341797 224.13232422 C10.55116023 222.93225306 12.10741366 221.74318288 13.6640625 220.5546875 C16.59962105 217.34422715 16.96018279 215.30523597 17 211 C15.02033737 207.93692369 15.02033737 207.93692369 12 206 C7.67692268 205.40250151 5.81938635 206.4728976 2.5625 209.25 Z " fill="currentColor" transform="translate(233,132)"/>
<path d="M0 0 C1.05445313 -0.04898438 2.10890625 -0.09796875 3.1953125 -0.1484375 C14.06379536 1.39760996 21.2213236 8.97548007 28.61328125 16.44921875 C29.70729717 17.53985726 30.80205358 18.62975342 31.89750671 19.71894836 C34.17889109 21.99300501 36.45110028 24.27574315 38.71704102 26.56518555 C41.60263905 29.47926824 44.51011373 32.37031684 47.42489338 35.25517559 C49.68613705 37.49823498 51.93519437 39.7532124 54.18089867 42.01181984 C55.24761727 43.08184177 56.31797344 44.14825159 57.39220619 45.2107296 C64.38741937 52.14609907 70.63231587 58.88380289 72.5390625 68.84375 C72.52617187 69.8440625 72.51328125 70.844375 72.5 71.875 C72.51289063 72.8753125 72.52578125 73.875625 72.5390625 74.90625 C70.49748245 85.57050342 63.66934055 92.22952066 56.0625 99.5 C55.07240247 100.46495168 54.0834611 101.43109112 53.09570312 102.3984375 C50.69986158 104.73584388 48.29311798 107.06068447 45.875 109.375 C46.3391721 110.93249199 46.80418363 112.48973383 47.26953125 114.046875 C47.54361816 114.96404297 47.81770508 115.88121094 48.10009766 116.82617188 C48.64758773 118.6269899 49.22531802 120.41874588 49.82421875 122.203125 C55.32404315 140.24487699 52.56558182 160.21582614 44.04736328 176.71191406 C39.44021133 185.25533382 33.5282209 191.86655445 26.75 198.75 C26.15171387 199.3579541 25.55342773 199.9659082 24.93701172 200.59228516 C24.35709473 201.16769043 23.77717773 201.7430957 23.1796875 202.3359375 C22.66390137 202.84946777 22.14811523 203.36299805 21.61669922 203.89208984 C19.41876424 205.76344631 17.52252814 207.18745505 14.875 208.375 C12.31396484 207.71264648 12.31396484 207.71264648 9.5859375 206.24609375 C8.57144531 205.71177734 7.55695313 205.17746094 6.51171875 204.62695312 C5.43535156 204.02818359 4.35898437 203.42941406 3.25 202.8125 C2.13496094 202.20986328 1.01992188 201.60722656 -0.12890625 200.98632812 C-16.47515632 192.04550979 -31.56523875 181.98387916 -46.125 170.375 C-47.13046875 169.58351562 -48.1359375 168.79203125 -49.171875 167.9765625 C-65.91640765 154.57125746 -81.94281808 139.29330834 -95.125 122.375 C-96.0504593 121.24759166 -96.97904542 120.12274534 -97.91015625 119 C-109.39649178 105.07052128 -119.09273341 90.03309314 -128.00097656 74.34716797 C-129.09824707 72.42193966 -130.21610553 70.50982216 -131.3359375 68.59765625 C-131.98820313 67.45167969 -132.64046875 66.30570312 -133.3125 65.125 C-133.88355469 64.12984375 -134.45460937 63.1346875 -135.04296875 62.109375 C-136.36226131 58.77542268 -136.49336234 57.69103136 -135.125 54.375 C-133.21174065 51.76954676 -131.0496504 49.45421299 -128.8125 47.125 C-128.18166504 46.46185791 -127.55083008 45.79871582 -126.90087891 45.11547852 C-118.21592502 36.1698233 -108.69440364 29.19925069 -97.125 24.375 C-96.13886719 23.96121094 -95.15273438 23.54742187 -94.13671875 23.12109375 C-86.26771334 20.36357903 -78.78526107 19.994922 -70.5 19.9375 C-69.46335205 19.92734863 -68.4267041 19.91719727 -67.35864258 19.90673828 C-56.69939609 20.02651457 -47.1171107 22.87776125 -37.125 26.375 C-36.16460815 25.39889771 -36.16460815 25.39889771 -35.18481445 24.40307617 C-32.7940279 21.97808914 -30.39871524 19.5577584 -28.00024414 17.14038086 C-26.96553131 16.09564581 -25.93262504 15.04911817 -24.90161133 14.00073242 C-23.41445226 12.48915838 -21.92079298 10.98427182 -20.42578125 9.48046875 C-19.53028564 8.57449951 -18.63479004 7.66853027 -17.7121582 6.73510742 C-12.09243674 1.60857658 -7.45274367 0.23345944 0 0 Z M-85.625 52.5 C-87.51479564 56.1221083 -87.27585716 57.4963665 -86.125 61.375 C-83.84416372 63.75200167 -83.84416372 63.75200167 -80.9375 65.75 C-73.13658555 71.79722051 -69.00849023 78.1332766 -64.71484375 86.95703125 C-62.83870449 89.8104224 -61.22244038 90.9753802 -58.125 92.375 C-54.91183477 91.88737739 -54.91183477 91.88737739 -52.125 90.375 C-49.69959057 86.73688586 -49.5766026 85.68383674 -50.125 81.375 C-54.64635715 69.50643747 -64.65835986 56.2303056 -76.125 50.375 C-80.48961053 49.69773285 -82.22359017 49.60880164 -85.625 52.5 Z " fill="currentColor" transform="translate(381.125,61.625)"/>
<path d="M0 0 C3.69186542 2.59216083 4.82883761 4.04149064 5.625 8.5 C4.87067498 12.72422013 3.38174161 14.56138855 0 17 C-3.51187192 18.7408506 -7.15222046 20.10449469 -10.8125 21.5 C-29.29529419 28.88237762 -46.86263089 38.32709714 -63 50 C-63.6487207 50.46760742 -64.29744141 50.93521484 -64.96582031 51.41699219 C-84.86413764 65.85302633 -104.15373924 82.13258299 -120 101 C-120.44972168 101.53061035 -120.89944336 102.0612207 -121.36279297 102.60791016 C-135.15079133 118.94014907 -147.28757644 136.55745823 -157.375 155.4140625 C-157.97103027 156.51488159 -157.97103027 156.51488159 -158.57910156 157.63793945 C-159.3398994 159.05087238 -160.08747313 160.4710349 -160.81933594 161.89916992 C-162.42645839 164.88592778 -163.58661755 166.76503794 -166.5703125 168.4609375 C-170.37318541 169.30466172 -173.47967708 168.94364871 -176.8125 166.875 C-178.67122066 163.9401779 -178.79978766 161.45278472 -179 158 C-178.04428484 155.31868802 -177.09848155 153.14982231 -175.75 150.6875 C-175.38938477 150.00163818 -175.02876953 149.31577637 -174.65722656 148.60913086 C-154.69126157 111.2761461 -125.92212671 74.61851851 -92 49 C-90.7187231 47.99257336 -89.43889756 46.9832994 -88.16015625 45.97265625 C-24.15653367 -4.26291771 -24.15653367 -4.26291771 0 0 Z " fill="#ECC2C4" transform="translate(252,61)"/>
<path d="M0 0 C2.9375 2.0625 2.9375 2.0625 5 5 C6.00627707 11.83393385 3.14686165 16.38575777 -0.125 22.125 C-0.6597998 23.08204834 -1.19459961 24.03909668 -1.74560547 25.02514648 C-10.32340398 40.12727052 -20.10954249 54.47565826 -31 68 C-31.69996094 68.89203125 -32.39992188 69.7840625 -33.12109375 70.703125 C-46.8381897 87.91870965 -62.66559452 104.43290686 -80 118 C-81.10532964 118.91499907 -82.20804871 119.8331579 -83.30859375 120.75390625 C-97.988768 132.94076509 -114.15401011 143.08052334 -131 152 C-131.6276123 152.33306152 -132.25522461 152.66612305 -132.90185547 153.00927734 C-141.13849832 157.33957895 -149.56698449 161.26863049 -158.0625 165.0625 C-158.94317139 165.46919922 -159.82384277 165.87589844 -160.73120117 166.29492188 C-165.89632631 168.55037466 -169.35506611 169.57854466 -175 168 C-177.4375 166.375 -177.4375 166.375 -179 164 C-179.5625 160.5625 -179.5625 160.5625 -179 157 C-174.91513047 151.72265302 -169.69197094 149.88088111 -163.625 147.4375 C-133.03383328 134.5547103 -104.94191568 117.23832547 -80.68359375 94.5 C-78.39041542 92.36370577 -76.06336739 90.29297234 -73.6875 88.25 C-67.2416914 82.64321194 -61.54450189 76.48663405 -56 70 C-54.7625 68.57880859 -54.7625 68.57880859 -53.5 67.12890625 C-39.11331321 50.50371332 -26.79511783 32.40313855 -16.34741211 13.06323242 C-8.7984587 -0.89475851 -8.7984587 -0.89475851 0 0 Z " fill="#ECC2C4" transform="translate(438,284)"/>
<path d="M0 0 C2.375 1.5625 2.375 1.5625 4 4 C4.58965186 7.32349232 4.85523884 8.88232083 4 12 C-0.21823531 16.82084035 -5.46849518 19.47263936 -11.03515625 22.54907227 C-28.1447565 32.13320515 -44.00144656 44.43745323 -59 57 C-59.81621826 57.67869141 -59.81621826 57.67869141 -60.64892578 58.37109375 C-67.80010139 64.32939756 -74.67009101 70.42131586 -81.09350586 77.16723633 C-83.53632219 79.7006072 -85.6427506 81.82287314 -89 83 C-93.20842764 82.92484951 -95.27350128 82.65198603 -98.4375 79.8125 C-100.3802852 76.31548664 -100.84945396 74.93837743 -100 71 C-97.95116961 68.04727385 -95.52682073 65.54663893 -93 63 C-92.42507812 62.39929688 -91.85015625 61.79859375 -91.2578125 61.1796875 C-87.79334798 57.61943134 -84.15830737 54.29029259 -80.390625 51.0546875 C-78.59628661 49.5124947 -76.81757791 47.95208625 -75.046875 46.3828125 C-16.34207643 -5.32893797 -16.34207643 -5.32893797 0 0 Z " fill="#ECC2C4" transform="translate(203,36)"/>
<path d="M0 0 C3.57632467 2.51103647 4.78325846 4.04272488 5.75 8.3125 C4.64612168 13.73990172 1.92054285 16.20749976 -2 20 C-2.5367334 20.52045898 -3.0734668 21.04091797 -3.62646484 21.57714844 C-11.43943898 29.11116383 -19.47283391 36.27872743 -28 43 C-29.0643166 43.85613159 -30.12809309 44.71293495 -31.19140625 45.5703125 C-46.65924156 57.97271221 -63.00260147 68.809647 -80 79 C-80.67361572 79.4112915 -81.34723145 79.82258301 -82.04125977 80.24633789 C-86.28740096 82.78031631 -89.01874986 83.65790096 -94 83 C-96.375 82 -96.375 82 -98 80 C-98.9891191 76.57444781 -99.39810592 73.50032454 -98.4765625 70.02734375 C-96.1710868 66.86188902 -92.8679383 65.34672849 -89.5 63.5 C-70.10309806 52.46279627 -52.06180368 39.36656812 -35 25 C-34.46165527 24.55188965 -33.92331055 24.1037793 -33.36865234 23.64208984 C-26.16519341 17.64089978 -19.25892486 11.48079608 -12.73071289 4.74487305 C-8.45155744 0.33909333 -6.26878232 -0.63750329 0 0 Z " fill="#ECC2C4" transform="translate(408,395)"/>
</svg>
